<?xml version="1.0" standalone="no"?>
<!DOCTYPE svg PUBLIC "-//W3C//DTD SVG 20010904//EN"
 "http://www.w3.org/TR/2001/REC-SVG-20010904/DTD/svg10.dtd">
<svg version="1.0" xmlns="http://www.w3.org/2000/svg"
 width="64.000000pt" height="64.000000pt" viewBox="0 0 64.000000 64.000000"
 preserveAspectRatio="xMidYMid meet">
<metadata>
Created by potrace 1.11, written by Peter Selinger 2001-2013
</metadata>
<g transform="translate(0.000000,64.000000) scale(0.100000,-0.100000)"
fill="#000000" stroke="none">
<path d="M343 603 c-30 -6 -71 -46 -79 -79 -4 -15 -2 -40 4 -56 5 -15 6 -28 1
-28 -4 0 -35 17 -68 39 -74 48 -125 59 -152 35 -20 -18 -24 -50 -10 -73 5 -8
42 -31 83 -50 87 -43 102 -65 87 -131 -12 -52 -7 -132 12 -172 22 -49 107 -61
140 -20 18 24 20 37 17 131 l-3 104 32 26 c18 15 69 42 113 60 62 25 84 39 91
58 7 20 6 30 -8 45 -15 17 -26 19 -68 13 -27 -3 -60 -13 -72 -21 -30 -19 -33
-18 -24 14 18 69 -27 118 -96 105z"/>
</g>
</svg>
